<?xml version="1.0" encoding="utf-8"?>
<!-- Generator: Adobe Illustrator 26.4.1, SVG Export Plug-In . SVG Version: 6.00 Build 0)  -->
<svg version="1.1" id="Layer_1" xmlns="http://www.w3.org/2000/svg" xmlns:xlink="http://www.w3.org/1999/xlink" x="0px" y="0px"
	 viewBox="0 0 400 400" style="enable-background:new 0 0 400 400;" xml:space="preserve">
<style type="text/css">
	.st0{fill:#EF4136;}
</style>
<g>
	<path d="M131.5,297.1c-1.9-14.4-3.4-26.1-5.1-38.9c-7.3,1-14.1,1.7-20.9,2.8c-12.8,2-15.7-0.4-15.7-13.6c0-42.8,0-85.6,0-128.5
		c0-15.5,1.9-17.4,17.7-15.2c30.7,4.2,61.4,8.8,92.1,13.2c3.9,0.6,7.8,1.1,12.1,2.8c-2.3,0.5-4.7,0.8-6.9,1.6
		c-7.7,2.7-15.9,4.5-22.9,8.5c-14.8,8.4-23.4,21.2-22,38.9c1.5,19,13.1,30.2,30.4,35.8c13.6,4.4,27.5,7.8,41.2,11.8
		c2.6,0.8,5.8,1.3,7.5,3.1c3.1,3.2,7.5,7.6,7.1,11c-0.4,3.2-5.8,7.6-9.7,8.4c-19.4,4-39,6.6-58.4,10.5c-4.8,1-10.1,4.1-13.3,7.7
		C153.7,269.3,143.5,282.4,131.5,297.1z"/>
	<path class="st0" d="M205.7,284.1c13.7-5.3,25.5-9.2,36.8-14.3c17.8-8,28-25,26.6-42.8c-1.4-18-12.2-30.9-31.5-36.9
		c-9.9-3.1-19.9-5.4-29.8-8.3c-6.4-1.9-13-3.7-18.8-6.8c-3.2-1.7-7.5-7.1-6.7-9.2c1.3-3.8,5.8-8.4,9.6-9.1
		c35.1-6,70.2-11.4,105.4-16.6c9.5-1.4,12.8,1.9,12.8,11.6c0.1,44.6,0.1,89.3,0,133.9c0,10.1-2.5,12.6-12.8,11.3
		C267.5,292.9,237.7,288.5,205.7,284.1z"/>
</g>
</svg>
